<?xml version="1.0" encoding="utf-8"?>
<svg id="master-artboard" viewBox="0 0 534.8744506835938 182.53936767578125" version="1.1" xmlns="http://www.w3.org/2000/svg" x="0px" y="0px" style="enable-background:new 0 0 336 235.2;" width="534.8744506835938px" height="182.53936767578125px"><rect id="ee-background" x="0" y="0" width="534.8744506835938" height="182.53936767578125" style="fill: white; fill-opacity: 0; pointer-events: none;"/><defs><style id="ee-google-fonts">@import url(https://fonts.googleapis.com/css?family=Bubbler+One:400|Audiowide:400|Baumans:400);</style></defs>

<g transform="matrix(4.198465824127197, 0, 0, 4.198465824127197, -174.44031691551208, -201.6825714111328)">
		<path d="M 0 0 H 336 V 235.199997 H 0 V 0 Z" class="st0" style="fill: rgb(56, 52, 75);"/>
	</g>
<path class="st1" d="M72.2,234.6h192.3c30.6-26.7,50-66,50-109.7c0-52.8-28.2-99-70.4-124.6H92.6C50.4,25.9,22.2,72.1,22.2,124.9&#10;&#9;&#9;C22.2,168.7,41.6,207.9,72.2,234.6z" style="fill: rgb(66, 62, 89);" transform="matrix(4.198465824127197, 0, 0, 4.198465824127197, -187.50133681297302, -188.62155151367188)"/>
<path d="M 278.399994 124.599998 A 110 110 0 0 1 168.399994 234.599998 A 110 110 0 0 1 58.399994 124.599998 A 110 110 0 0 1 168.399994 14.599998 A 110 110 0 0 1 278.399994 124.599998 Z" class="st2" style="fill: rgb(74, 69, 99);" transform="matrix(4.198465824127197, 0, 0, 4.198465824127197, -174.44031691551208, -201.6825714111328)"/>



<path class="st5" d="M236.9,123.5h-3c0-36.1-29.4-65.5-65.5-65.5c-36.1,0-65.5,29.4-65.5,65.5h-3c0-37.8,30.7-68.5,68.5-68.5&#10;&#9;&#9;C206.1,55,236.9,85.7,236.9,123.5z" style="fill: rgb(248, 233, 211);" transform="matrix(4.198465824127197, 0, 0, 4.198465824127197, -174.44031691551208, -201.6825714111328)"/>
<path class="st5" d="M168.4,211.7c-48.7,0-88.2-39.6-88.2-88.2c0-48.7,39.6-88.2,88.2-88.2c48.7,0,88.2,39.6,88.2,88.2&#10;&#9;&#9;C256.6,172.2,217,211.7,168.4,211.7z M168.4,38.3c-47,0-85.2,38.2-85.2,85.2c0,47,38.2,85.2,85.2,85.2c47,0,85.2-38.2,85.2-85.2&#10;&#9;&#9;C253.6,76.5,215.4,38.3,168.4,38.3z" style="fill: rgb(248, 233, 211); opacity: 0.3;" transform="matrix(4.198465824127197, 0, 0, 4.198465824127197, -174.44031691551208, -201.6825714111328)"/>


<path class="st7" d="M168.4,15c0,0-3.5,0-6.7,6.6c-3.2,6.6-8.8,29.1-10.8,37.1c-2,8-6.4,14.3-16.5,18.1s-12.6,9.4-12.6,11.6h46.6" style="fill: rgb(255, 216, 186);" transform="matrix(4.198465824127197, 0, 0, 4.198465824127197, -174.44031691551208, -201.6825714111328)"/>
<path class="st7" d="M168.4,15c0,0,3.5,0,6.7,6.6c3.2,6.6,8.8,29.1,10.8,37.1c2,8,6.4,14.3,16.5,18.1c10.2,3.8,12.6,9.4,12.6,11.6&#10;&#9;&#9;h-46.6" style="fill: rgb(255, 216, 186);" transform="matrix(4.198465824127197, 0, 0, 4.198465824127197, -174.44031691551208, -201.6825714111328)"/>


<path d="M 121.800003 88.300003 H 215 V 93.900003 H 121.800003 V 88.300003 Z" class="st9" style="fill: rgb(248, 122, 50);" transform="matrix(4.198465824127197, 0, 0, 4.198465824127197, -174.44031691551208, -201.6825714111328)"/>
<path d="M 159.199997 43.900002 H 177.599997 V 101.900002 H 159.199997 V 43.900002 Z" class="st5" style="fill: rgb(248, 233, 211);" transform="matrix(4.198465824127197, 0, 0, 4.198465824127197, -174.44031691551208, -201.6825714111328)"/>

<path d="M 137.800003 79.900002 H 138.900003 V 88.600001 H 137.800003 V 79.900002 Z" class="st9" style="fill: rgb(248, 122, 50);" transform="matrix(4.198465824127197, 0, 0, 4.198465824127197, -174.44031691551208, -201.6825714111328)"/>
<path d="M 141.800003 79.900002 H 142.900003 V 88.600001 H 141.800003 V 79.900002 Z" class="st9" style="fill: rgb(248, 122, 50);" transform="matrix(4.198465824127197, 0, 0, 4.198465824127197, -174.44031691551208, -201.6825714111328)"/>
<path d="M 145.800003 77 H 146.900003 V 88.5 H 145.800003 V 77 Z" class="st9" style="fill: rgb(248, 122, 50);" transform="matrix(4.198465824127197, 0, 0, 4.198465824127197, -174.44031691551208, -201.6825714111328)"/>
<path d="M 149.800003 72.800003 H 150.900003 V 88.500003 H 149.800003 V 72.800003 Z" class="st9" style="fill: rgb(248, 122, 50);" transform="matrix(4.198465824127197, 0, 0, 4.198465824127197, -174.44031691551208, -201.6825714111328)"/>







<g transform="matrix(4.198465824127197, 0, 0, 4.198465824127197, -174.44031691551208, -201.6825714111328)">
		<path d="M 83.000002 45.099998 A 28.6 28.799999 0 0 1 54.400002 73.899998 A 28.6 28.799999 0 0 1 25.800001 45.099998 A 28.6 28.799999 0 0 1 54.400002 16.299999 A 28.6 28.799999 0 0 1 83.000002 45.099998 Z" class="st17" style="fill: rgb(255, 230, 115);"/>
	</g>

<g transform="matrix(4.198465824127197, 0, 0, 4.198465824127197, -174.44031691551208, -201.6825714111328)">
		<path class="st13" d="M27.5,35c-1.1,2.9-1.7,6-1.8,9.3c3.9,0.7,8.4,2,13.5,4.9c9,5,25.6,8.8,39.4,11.3c1.6-2.4,2.8-5.1,3.6-8&#10;&#9;&#9;&#9;c-18-0.5-28.3-7.8-45-14.6C33.6,36.4,30.4,35.5,27.5,35z" style="fill: rgb(235, 213, 105);"/>
	</g>

<g transform="matrix(4.198465824127197, 0, 0, 4.198465824127197, -174.44031691551208, -201.6825714111328)">
		<path class="st13" d="M58.5,66.6c4.1,1.6,8.2,1.1,9-1c0.9-2.2-1.8-5.3-5.9-6.9c-4.1-1.6-8.2-1.1-9,1C51.8,61.9,54.4,65,58.5,66.6z&#10;&#9;&#9;&#9;" style="fill: rgb(235, 213, 105);"/>
	</g>
<g transform="matrix(4.198465824127197, 0, 0, 4.198465824127197, -174.44031691551208, -201.6825714111328)">
		<path class="st13" d="M49.3,62.6c-1.8-1.8-3.4-3.4-5.5-4.9c-2.2-1.5-4.6-3.4-7.1-4.6c-1.8-0.6-4-1.2-5.9-1.5&#10;&#9;&#9;&#9;c-1.5-0.3-2.9-0.3-4.4-0.1c0.9,3.8,2.5,7.4,4.8,10.5c3.3,0.7,6.4,3.1,9.1,5c2.7,1.8,5.4,3.9,8,6.1c2,0.4,4,0.7,6.1,0.7&#10;&#9;&#9;&#9;c3.9,0,7.5-0.8,10.9-2.1c-3.7-0.9-7.3-2.4-10.5-4.6C53,65.6,50.9,64.1,49.3,62.6z" style="fill: rgb(235, 213, 105);"/>
	</g>
<path class="st15" d="M67.2,39.1c0,9.9-8,17.9-17.9,17.9c-9.9,0-17.9-8-17.9-17.9c0-9.9,8-17.9,17.9-17.9&#10;&#9;&#9;C59.1,21.2,67.2,29.2,67.2,39.1z" style="fill: rgb(255, 255, 255); opacity: 0.2;" transform="matrix(4.198465824127197, 0, 0, 4.198465824127197, -174.44031691551208, -201.6825714111328)"/>
<path d="M63.6,21c5.3,4.3,8.7,10.8,8.7,18.1c0,13-10.8,23.6-24.2,23.6c-7.5,0-14.1-3.3-18.6-8.5c3.7,9.9,13.5,17,25,17&#10;&#9;&#9;c14.7,0,26.6-11.6,26.6-25.9C81.1,34.2,73.8,24.6,63.6,21z" transform="matrix(4.198465824127197, 0, 0, 4.198465824127197, -174.44031691551208, -201.6825714111328)" style="opacity: 0.03;"/>
















<g transform="matrix(4.198465824127197, 0, 0, 4.198465824127197, -174.44031691551208, -201.6825714111328)">
		<path d="M 101.500004 91.800003 A 16.700001 16.799999 0 0 1 84.800003 108.600002 A 16.700001 16.799999 0 0 1 68.100002 91.800003 A 16.700001 16.799999 0 0 1 84.800003 75.000004 A 16.700001 16.799999 0 0 1 101.500004 91.800003 Z" class="st10" style="fill: rgb(250, 139, 79);"/>
	</g>
<path d="M 95.2 85.400002 A 2.2 2.2 0 0 1 93 87.600002 A 2.2 2.2 0 0 1 90.8 85.400002 A 2.2 2.2 0 0 1 93 83.200001 A 2.2 2.2 0 0 1 95.2 85.400002 Z" class="st11" style="fill: rgb(227, 126, 72);" transform="matrix(4.198465824127197, 0, 0, 4.198465824127197, -174.44031691551208, -201.6825714111328)"/>
<path d="M 78.700001 82.599998 A 1.3 1.3 0 0 1 77.400002 83.899998 A 1.3 1.3 0 0 1 76.100002 82.599998 A 1.3 1.3 0 0 1 77.400002 81.299999 A 1.3 1.3 0 0 1 78.700001 82.599998 Z" class="st11" style="fill: rgb(227, 126, 72);" transform="matrix(4.198465824127197, 0, 0, 4.198465824127197, -174.44031691551208, -201.6825714111328)"/>



<path d="M 88.899998 79.300003 A 1.3 1.3 0 0 1 87.599998 80.600003 A 1.3 1.3 0 0 1 86.299999 79.300003 A 1.3 1.3 0 0 1 87.599998 78.000003 A 1.3 1.3 0 0 1 88.899998 79.300003 Z" class="st11" style="fill: rgb(227, 126, 72);" transform="matrix(4.198465824127197, 0, 0, 4.198465824127197, -174.44031691551208, -201.6825714111328)"/>
<path d="M 92.100003 91.599998 A 1.3 1.3 0 0 1 90.800003 92.899998 A 1.3 1.3 0 0 1 89.500003 91.599998 A 1.3 1.3 0 0 1 90.800003 90.299999 A 1.3 1.3 0 0 1 92.100003 91.599998 Z" class="st11" style="fill: rgb(227, 126, 72);" transform="matrix(4.198465824127197, 0, 0, 4.198465824127197, -174.44031691551208, -201.6825714111328)"/>
<path d="M 87.6 89.099998 A 1.6 1.6 0 0 1 86 90.699998 A 1.6 1.6 0 0 1 84.4 89.099998 A 1.6 1.6 0 0 1 86 87.499998 A 1.6 1.6 0 0 1 87.6 89.099998 Z" class="st11" style="fill: rgb(227, 126, 72);" transform="matrix(4.198465824127197, 0, 0, 4.198465824127197, -174.44031691551208, -201.6825714111328)"/>

<path d="M 75.200001 91.599998 A 1.3 1.3 0 0 1 73.900002 92.899998 A 1.3 1.3 0 0 1 72.600002 91.599998 A 1.3 1.3 0 0 1 73.900002 90.299999 A 1.3 1.3 0 0 1 75.200001 91.599998 Z" class="st11" style="fill: rgb(227, 126, 72);" transform="matrix(4.198465824127197, 0, 0, 4.198465824127197, -174.44031691551208, -201.6825714111328)"/>
<path d="M 78.299999 92.199997 A 2.2 2.2 0 0 1 76.099998 94.399997 A 2.2 2.2 0 0 1 73.899998 92.199997 A 2.2 2.2 0 0 1 76.099998 89.999997 A 2.2 2.2 0 0 1 78.299999 92.199997 Z" class="st11" style="fill: rgb(227, 126, 72);" transform="matrix(4.198465824127197, 0, 0, 4.198465824127197, -174.44031691551208, -201.6825714111328)"/>
<path d="M 88.000003 85.400002 A 3.7 3.7 0 0 1 84.300003 89.100002 A 3.7 3.7 0 0 1 80.600003 85.400002 A 3.7 3.7 0 0 1 84.300003 81.700001 A 3.7 3.7 0 0 1 88.000003 85.400002 Z" class="st11" style="fill: rgb(227, 126, 72);" transform="matrix(4.198465824127197, 0, 0, 4.198465824127197, -174.44031691551208, -201.6825714111328)"/>

<path d="M 92.200002 89.300003 A 9.3 9.3 0 0 1 82.900002 98.600003 A 9.3 9.3 0 0 1 73.600001 89.300003 A 9.3 9.3 0 0 1 82.900002 80.000003 A 9.3 9.3 0 0 1 92.200002 89.300003 Z" class="st15" style="fill: rgb(255, 255, 255); opacity: 0.2;" transform="matrix(4.198465824127197, 0, 0, 4.198465824127197, -174.44031691551208, -201.6825714111328)"/>
<path d="M90.3,79.9c2.8,2.2,4.5,5.6,4.5,9.4c0,6.8-5.6,12.2-12.6,12.2c-3.9,0-7.3-1.7-9.6-4.4c1.9,5.2,7,8.8,13,8.8&#10;&#9;&#9;c7.6,0,13.8-6,13.8-13.4C99.4,86.7,95.6,81.8,90.3,79.9z" transform="matrix(4.198465824127197, 0, 0, 4.198465824127197, -174.44031691551208, -201.6825714111328)" style="opacity: 0.08;"/>






































<path d="M 166.899994 50.5 H 169.799994 V 112.400002 H 166.899994 V 50.5 Z" class="st9" style="fill: rgb(248, 122, 50);" transform="matrix(4.198465824127197, 0, 0, 4.198465824127197, -174.44031691551208, -201.6825714111328)"/>















<g transform="matrix(4.198465824127197, 0, 0, 4.198465824127197, -174.44031691551208, -201.6825714111328)">
		<path d="M 52.199999 92.199997 A 2.9 2.9 0 0 1 49.299999 95.099997 A 2.9 2.9 0 0 1 46.399999 92.199997 A 2.9 2.9 0 0 1 49.299999 89.299997 A 2.9 2.9 0 0 1 52.199999 92.199997 Z" transform="matrix(-0.707 -0.7072 0.7072 -0.707 18.9312 192.1759)" class="st3" style="fill: rgb(250, 116, 52);"/>
	</g>
















<path d="M 113.199998 60.900002 A 6.1 6.1 0 0 1 107.099998 67.000001 A 6.1 6.1 0 0 1 100.999999 60.900002 A 6.1 6.1 0 0 1 107.099998 54.800002 A 6.1 6.1 0 0 1 113.199998 60.900002 Z" class="st5" style="fill: rgb(248, 233, 211);" transform="matrix(4.198465824127197, 0, 0, 4.198465824127197, -116.84032607078552, -199.5492401123047)"/>
<path d="M 110.599998 60.900002 A 3.5 3.5 0 0 1 107.099998 64.400002 A 3.5 3.5 0 0 1 103.599998 60.900002 A 3.5 3.5 0 0 1 107.099998 57.400002 A 3.5 3.5 0 0 1 110.599998 60.900002 Z" class="st0" style="fill: rgb(56, 52, 75);" transform="matrix(4.198465824127197, 0, 0, 4.198465824127197, -174.44031691551208, -201.6825714111328)"/>







<g transform="matrix(2.019998788833618, 0, 0, 2.019998788833618, 218.53307175636292, -117.92916870117188)"><g id="g-3" transform="matrix(1, 0, 0, 1, 0, 0)">
	<g id="g-4">
		<path class="st0" d="M58,49h100v100H58V49z" style="fill: rgb(3, 2, 0);"/>
	</g>
</g></g><g transform="matrix(2.019998788833618, 0, 0, 2.019998788833618, 67.06638932228088, -115.79582214355469)"><g id="g-1" transform="matrix(1, 0, 0, 1, 0, 0)">
	<g id="g-2">
		<path class="st0" d="M58,49h100v100H58V49z" style="fill: rgb(1, 1, 0);"/>
	</g>
</g></g><g transform="matrix(2.019998788833618, 0, 0, 2.019998788833618, -119.60026717185974, -114.72915649414062)"><g id="g-5" transform="matrix(1, 0, 0, 1, 0, 0)">
	<g id="g-6">
		<path class="st0" d="M58,49h100v100H58V49z" style="fill: rgb(6, 4, 0);"/>
	</g>
</g></g><g transform="matrix(1.6260290145874023, 0, 0, 1.6260290145874023, -83.49294447898865, -70.71190452575684)"><g id="g-9" transform="matrix(1, 0, 0, 1, 0, 0)">
	<g id="g-10">
		<path class="st0" d="M58,49h100v100H58V49z" style="fill: rgb(255, 192, 1);"/>
	</g>
</g></g><path d="M 287.27935791015625 153 L 286.38934326171875 153 L 286.38934326171875 151.3699951171875 C 286.38934326171875 146.41000366210938 285.176025390625 143.92999267578125 282.74932861328125 143.92999267578125 C 282.23602294921875 143.92999267578125 281.7460021972656 144.05999755859375 281.27935791015625 144.32000732421875 C 280.8193359375 144.586669921875 280.4960021972656 144.82000732421875 280.3093566894531 145.02000427246094 C 280.1226806640625 145.22000122070312 279.8860168457031 145.51333618164062 279.5993347167969 145.89999389648438 L 279.5993347167969 153 L 278.7093505859375 153 L 278.7093505859375 136.1999969482422 L 279.5993347167969 136.1999969482422 L 279.5993347167969 144.47999572753906 L 286.079345703125 136.17999267578125 L 287.3093566894531 136.17999267578125 L 281.7393493652344 143.17999267578125 C 282.1193542480469 143.086669921875 282.4960021972656 143.0399932861328 282.8693542480469 143.0399932861328 C 284.2293395996094 143.0399932861328 285.30267333984375 143.69667053222656 286.08935546875 145.00999450683594 C 286.8826904296875 146.32333374023438 287.27935791015625 148.34666442871094 287.27935791015625 151.0800018310547 L 287.27935791015625 153 ZM 297.5269470214844 152.13999938964844 L 297.5269470214844 153.02000427246094 C 296.56695556640625 153.02000427246094 295.7236328125 152.97999572753906 294.9969482421875 152.89999389648438 C 294.2702941894531 152.82000732421875 293.51361083984375 152.64999389648438 292.7269592285156 152.38999938964844 C 291.94696044921875 152.1233367919922 291.3036193847656 151.76666259765625 290.7969665527344 151.32000732421875 C 290.290283203125 150.8733367919922 289.8736267089844 150.25332641601562 289.5469665527344 149.4600067138672 C 289.22027587890625 148.6666717529297 289.05694580078125 147.72332763671875 289.05694580078125 146.6300048828125 C 289.05694580078125 145.52999877929688 289.20361328125 144.57333374023438 289.4969482421875 143.75999450683594 C 289.7969665527344 142.94667053222656 290.17694091796875 142.3300018310547 290.636962890625 141.91000366210938 C 291.5036315917969 141.14334106445312 292.3436279296875 140.75999450683594 293.1569519042969 140.75999450683594 C 294.5169677734375 140.75999450683594 295.57696533203125 141.16000366210938 296.3369445800781 141.9600067138672 C 297.0969543457031 142.75999450683594 297.4769592285156 143.81666564941406 297.4769592285156 145.1300048828125 C 297.4769592285156 146.00999450683594 297.47027587890625 146.52000427246094 297.4569396972656 146.66000366210938 L 289.94696044921875 146.66000366210938 C 289.94696044921875 148.72666931152344 290.5636291503906 150.1566619873047 291.7969665527344 150.9499969482422 C 293.02362060546875 151.7433319091797 294.9336242675781 152.13999938964844 297.5269470214844 152.13999938964844 M 296.5969543457031 145.77999877929688 L 296.5969543457031 145.25 C 296.5969543457031 144.19000244140625 296.2969665527344 143.32666015625 295.69696044921875 142.66000366210938 C 295.0969543457031 141.98666381835938 294.3036193847656 141.64999389648438 293.31695556640625 141.64999389648438 C 292.3302917480469 141.64999389648438 291.5536193847656 142.0366668701172 290.9869689941406 142.80999755859375 C 290.4202880859375 143.58999633789062 290.0802917480469 144.5800018310547 289.9669494628906 145.77999877929688 L 296.5969543457031 145.77999877929688 ZM 308.3285827636719 146.5399932861328 C 308.3285827636719 147.63333129882812 308.2252502441406 148.58999633789062 308.0185852050781 149.41000366210938 C 307.8119201660156 150.23666381835938 307.5519104003906 150.8733367919922 307.23858642578125 151.32000732421875 C 306.9252624511719 151.76666259765625 306.5519104003906 152.1266632080078 306.11859130859375 152.39999389648438 C 305.03192138671875 153.10667419433594 303.8419189453125 153.25 302.548583984375 152.8300018310547 C 302.0952453613281 152.69000244140625 301.6219177246094 152.42999267578125 301.12860107421875 152.0500030517578 C 300.63525390625 151.67666625976562 300.2352600097656 151.0800018310547 299.9285888671875 150.25999450683594 C 299.6219177246094 149.44667053222656 299.4685974121094 148.44667053222656 299.4685974121094 147.25999450683594 C 299.4685974121094 145.33999633789062 299.8552551269531 143.77667236328125 300.62860107421875 142.57000732421875 C 301.395263671875 141.3633270263672 302.5019226074219 140.75999450683594 303.9485778808594 140.75999450683594 C 305.395263671875 140.75999450683594 306.48193359375 141.32666015625 307.2085876464844 142.4600067138672 C 307.9419250488281 143.60000610351562 308.31524658203125 144.9600067138672 308.3285827636719 146.5399932861328 M 303.62860107421875 152.16000366210938 L 303.9085998535156 152.17999267578125 L 304.1785888671875 152.16000366210938 C 306.3519287109375 151.95333862304688 307.4385986328125 150.1199951171875 307.4385986328125 146.66000366210938 C 307.4385986328125 145.24000549316406 307.15191650390625 144.0500030517578 306.5785827636719 143.08999633789062 C 305.99859619140625 142.1300048828125 305.0785827636719 141.64999389648438 303.8185729980469 141.64999389648438 C 302.99859619140625 141.64999389648438 302.3185729980469 141.92999267578125 301.7785949707031 142.49000549316406 C 300.8319091796875 143.48333740234375 300.35858154296875 145.02667236328125 300.35858154296875 147.1199951171875 L 300.35858154296875 147.30999755859375 C 300.35858154296875 148.6366729736328 300.6319274902344 149.75332641601562 301.1785888671875 150.66000366210938 C 301.7185974121094 151.56666564941406 302.5352478027344 152.06666564941406 303.62860107421875 152.16000366210938 ZM 319.5162048339844 153 L 318.626220703125 153 L 318.626220703125 151.3699951171875 C 318.626220703125 150.0433349609375 318.3328857421875 148.90333557128906 317.7462158203125 147.9499969482422 C 317.1662292480469 146.99667358398438 316.4562072753906 146.52000427246094 315.6162109375 146.52000427246094 C 314.7762145996094 146.52000427246094 313.962890625 146.8733367919922 313.17620849609375 147.5800018310547 L 311.7862243652344 149.0399932861328 L 311.7862243652344 153 L 310.8962097167969 153 L 310.8962097167969 135 L 311.7862243652344 135 L 311.7862243652344 147.74000549316406 L 318.2862243652344 140.97999572753906 L 319.5162048339844 140.97999572753906 L 314.9962158203125 145.6999969482422 C 315.1895446777344 145.65333557128906 315.43621826171875 145.6300048828125 315.7362060546875 145.6300048828125 C 316.029541015625 145.6300048828125 316.3795471191406 145.72332763671875 316.7862243652344 145.91000366210938 C 317.19287109375 146.08999633789062 317.60955810546875 146.3766632080078 318.0362243652344 146.77000427246094 C 318.462890625 147.163330078125 318.81622314453125 147.73666381835938 319.0962219238281 148.49000549316406 C 319.376220703125 149.2433319091797 319.5162048339844 150.10665893554688 319.5162048339844 151.0800018310547 L 319.5162048339844 153 ZM 322.8258056640625 153 L 321.935791015625 153 L 321.935791015625 141 L 322.8258056640625 141 L 322.8258056640625 153 M 321.9858093261719 137.0399932861328 L 322.87579345703125 137.0399932861328 L 322.87579345703125 139.10000610351562 L 321.9858093261719 139.10000610351562 L 321.9858093261719 137.0399932861328 Z" transform="matrix(6.799084663391113, 0, 0, 6.799084663391113, -1695.0391845703125, -885.51171875)" style="fill: rgb(255, 192, 1); white-space: pre; color: rgb(51, 51, 51);"/><path d="M 92.92407989501953 183 L 92.92407989501953 186 L 90.62408447265625 186 L 90.62408447265625 183 C 90.62408447265625 181.19332885742188 90.2274169921875 179.9166717529297 89.43408203125 179.1699981689453 C 88.6407470703125 178.42999267578125 87.13407897949219 178.0500030517578 84.9140853881836 178.02999877929688 L 84.9140853881836 186 L 82.65408325195312 186 L 82.65408325195312 169.1999969482422 L 84.9140853881836 169.1999969482422 L 84.9140853881836 176.0399932861328 C 86.09408569335938 176.07333374023438 86.79741668701172 176.10665893554688 87.02408599853516 176.13999938964844 L 90.40408325195312 169.1999969482422 L 92.85408020019531 169.1999969482422 L 89.0640869140625 176.66000366210938 C 91.63741302490234 177.60665893554688 92.92407989501953 179.72000122070312 92.92407989501953 183 Z" transform="matrix(8.014598846435547, 0, 0, 8.014598846435547, -618.0619506835938, -1333.25439453125)" style="fill: rgb(255, 255, 255); white-space: pre; color: rgb(255, 255, 255); stroke: rgb(255, 255, 255); stroke-width: 0;"/></svg>