<?xml version="1.0" encoding="utf-8"?>
<svg id="master-artboard" viewBox="0 0 809.432861328125 320.65667724609375" xmlns="http://www.w3.org/2000/svg" width="809.432861328125px" height="320.65667724609375px" version="1.1" style="shape-rendering:geometricPrecision; text-rendering:geometricPrecision; image-rendering:optimizeQuality; fill-rule:evenodd; clip-rule:evenodd"><defs><style id="ee-google-fonts">@import url(https://fonts.googleapis.com/css?family=Quicksand:300,400,700);</style><radialGradient id="gradient-0" gradientUnits="objectBoundingBox" cx="0.5" cy="0.5" r="0.5">
                <stop offset="0" style="stop-color: #ffc001"/>
                <stop offset="1" style="stop-color: #9a7400"/>
              </radialGradient><radialGradient id="gradient-1" gradientUnits="objectBoundingBox" cx="0.5492704510688782" cy="0.29475346207618713" r="0.5">
                <stop offset="0" style="stop-color: #000000"/>
                <stop offset="1" style="stop-color: #000000"/>
              </radialGradient></defs><rect id="ee-background" x="0" y="0" width="809.432861328125" height="320.65667724609375" style="fill: rgb(0, 0, 0); fill-opacity: 1; pointer-events: none;"/>
 
 <metadata id="CorelCorpID_0Corel-Layer"/>
<path d="M 612.6776733398438 358.4200134277344 L 612.6776733398438 342.7799987792969 C 612.6776733398438 342.6199951171875 612.734375 342.48333740234375 612.8477172851562 342.3699951171875 C 612.9609985351562 342.25665283203125 613.0977172851562 342.20001220703125 613.2576904296875 342.20001220703125 C 613.4176635742188 342.20001220703125 613.5576782226562 342.25665283203125 613.6776733398438 342.3699951171875 C 613.7976684570312 342.48333740234375 613.857666015625 342.6199951171875 613.857666015625 342.7799987792969 L 613.857666015625 354.0799865722656 L 620.8176879882812 347.1400146484375 C 621.0910034179688 346.8733215332031 621.3610229492188 346.8733215332031 621.627685546875 347.1400146484375 C 621.7610473632812 347.2533264160156 621.8276977539062 347.38665771484375 621.8276977539062 347.5400085449219 C 621.8276977539062 347.6933288574219 621.7610473632812 347.8333435058594 621.627685546875 347.9599914550781 L 617.0977172851562 352.5 L 621.65771484375 358.0400085449219 C 621.897705078125 358.32666015625 621.8810424804688 358.6066589355469 621.607666015625 358.8800048828125 C 621.5143432617188 358.9599914550781 621.3710327148438 359 621.1776733398438 359 C 620.984375 359 620.8477172851562 358.9266662597656 620.7677001953125 358.7799987792969 L 616.2576904296875 353.3399963378906 L 613.857666015625 355.739990234375 L 613.857666015625 358.4200134277344 C 613.857666015625 358.5799865722656 613.7976684570312 358.7166748046875 613.6776733398438 358.8299865722656 C 613.5576782226562 358.9433288574219 613.4176635742188 359 613.2576904296875 359 C 613.0977172851562 359 612.9609985351562 358.9433288574219 612.8477172851562 358.8299865722656 C 612.734375 358.7166748046875 612.6776733398438 358.5799865722656 612.6776733398438 358.4200134277344 ZM 636.65771484375 352.7099914550781 L 636.65771484375 352.80999755859375 C 636.65771484375 352.9700012207031 636.6010131835938 353.0966796875 636.4876708984375 353.19000244140625 C 636.3743896484375 353.2900085449219 636.2376708984375 353.3399963378906 636.0776977539062 353.3399963378906 L 626.4276733398438 353.3399963378906 C 626.494384765625 354.6199951171875 626.9677124023438 355.69000244140625 627.8477172851562 356.54998779296875 C 628.7277221679688 357.4166564941406 629.7743530273438 357.8500061035156 630.9876708984375 357.8500061035156 C 631.7743530273438 357.8500061035156 632.5043334960938 357.65667724609375 633.1776733398438 357.2699890136719 C 633.8510131835938 356.8900146484375 634.3876953125 356.3699951171875 634.7877197265625 355.7099914550781 C 634.974365234375 355.3900146484375 635.2277221679688 355.32666015625 635.5476684570312 355.5199890136719 C 635.86767578125 355.7466735839844 635.9343872070312 356.0199890136719 635.7476806640625 356.3399963378906 C 635.234375 357.1533203125 634.5576782226562 357.79998779296875 633.7177124023438 358.2799987792969 C 632.877685546875 358.760009765625 631.9677124023438 359 630.9876708984375 359 C 629.40771484375 359 628.06103515625 358.4266662597656 626.9476928710938 357.2799987792969 C 625.8343505859375 356.1400146484375 625.2777099609375 354.75665283203125 625.2777099609375 353.1300048828125 C 625.2777099609375 351.510009765625 625.8343505859375 350.1233215332031 626.9476928710938 348.9700012207031 C 628.06103515625 347.8166809082031 629.3876953125 347.239990234375 630.9276733398438 347.239990234375 C 632.474365234375 347.239990234375 633.7843627929688 347.7633361816406 634.857666015625 348.80999755859375 C 635.9310302734375 349.8566589355469 636.531005859375 351.15667724609375 636.65771484375 352.7099914550781 M 635.40771484375 352.2099914550781 C 635.21435546875 351.10333251953125 634.7010498046875 350.19000244140625 633.86767578125 349.4700012207031 C 633.041015625 348.75 632.0776977539062 348.3900146484375 630.9777221679688 348.3900146484375 C 629.8843383789062 348.3900146484375 628.9210205078125 348.7466735839844 628.0877075195312 349.4599914550781 C 627.2543334960938 350.17333984375 626.7277221679688 351.0899963378906 626.5076904296875 352.2099914550781 L 635.40771484375 352.2099914550781 ZM 641.8136596679688 357.260009765625 C 641.8136596679688 357.260009765625 641.5436401367188 356.9700012207031 641.003662109375 356.3900146484375 C 640.4569702148438 355.80999755859375 640.1836547851562 354.7200012207031 640.1836547851562 353.1199951171875 C 640.1836547851562 351.5199890136719 640.7269897460938 350.1400146484375 641.8136596679688 348.9800109863281 C 642.9003295898438 347.82000732421875 644.2136840820312 347.239990234375 645.753662109375 347.239990234375 C 647.2869873046875 347.239990234375 648.5969848632812 347.82000732421875 649.6836547851562 348.9800109863281 C 650.7769775390625 350.1400146484375 651.3236694335938 351.5199890136719 651.3236694335938 353.1199951171875 C 651.3236694335938 354.7200012207031 650.7769775390625 356.1000061035156 649.6836547851562 357.260009765625 C 648.5969848632812 358.4200134277344 647.2869873046875 359 645.753662109375 359 C 644.2136840820312 359 642.9003295898438 358.4200134277344 641.8136596679688 357.260009765625 M 645.753662109375 348.3699951171875 C 645.753662109375 348.3699951171875 645.4536743164062 348.3699951171875 644.8536376953125 348.3699951171875 C 644.253662109375 348.3699951171875 643.5169677734375 348.8333435058594 642.6436767578125 349.760009765625 C 641.7703247070312 350.6866760253906 641.3336791992188 351.8033447265625 641.3336791992188 353.1099853515625 C 641.3336791992188 354.4100036621094 641.7703247070312 355.52667236328125 642.6436767578125 356.4599914550781 C 643.5169677734375 357.38665771484375 644.5536499023438 357.8500061035156 645.753662109375 357.8500061035156 C 646.9536743164062 357.8500061035156 647.9903564453125 357.38665771484375 648.8636474609375 356.4599914550781 C 649.7303466796875 355.52667236328125 650.1636352539062 354.4100036621094 650.1636352539062 353.1099853515625 C 650.1636352539062 351.8033447265625 649.7303466796875 350.6866760253906 648.8636474609375 349.760009765625 C 647.9903564453125 348.8333435058594 646.9536743164062 348.3699951171875 645.753662109375 348.3699951171875 ZM 655.733642578125 358.4200134277344 L 655.733642578125 342.7799987792969 C 655.733642578125 342.6199951171875 655.7903442382812 342.48333740234375 655.9036865234375 342.3699951171875 C 656.0169677734375 342.25665283203125 656.1536865234375 342.20001220703125 656.3136596679688 342.20001220703125 C 656.4736328125 342.20001220703125 656.6136474609375 342.25665283203125 656.733642578125 342.3699951171875 C 656.8536376953125 342.48333740234375 656.9136352539062 342.6199951171875 656.9136352539062 342.7799987792969 L 656.9136352539062 354.0799865722656 L 663.8736572265625 347.1400146484375 C 664.14697265625 346.8733215332031 664.4169921875 346.8733215332031 664.6836547851562 347.1400146484375 C 664.8170166015625 347.2533264160156 664.8836669921875 347.38665771484375 664.8836669921875 347.5400085449219 C 664.8836669921875 347.6933288574219 664.8170166015625 347.8333435058594 664.6836547851562 347.9599914550781 L 660.1536865234375 352.5 L 664.7136840820312 358.0400085449219 C 664.9536743164062 358.32666015625 664.93701171875 358.6066589355469 664.6636352539062 358.8800048828125 C 664.5703125 358.9599914550781 664.427001953125 359 664.233642578125 359 C 664.0403442382812 359 663.9036865234375 358.9266662597656 663.8236694335938 358.7799987792969 L 659.3136596679688 353.3399963378906 L 656.9136352539062 355.739990234375 L 656.9136352539062 358.4200134277344 C 656.9136352539062 358.5799865722656 656.8536376953125 358.7166748046875 656.733642578125 358.8299865722656 C 656.6136474609375 358.9433288574219 656.4736328125 359 656.3136596679688 359 C 656.1536865234375 359 656.0169677734375 358.9433288574219 655.9036865234375 358.8299865722656 C 655.7903442382812 358.7166748046875 655.733642578125 358.5799865722656 655.733642578125 358.4200134277344 ZM 669.2036743164062 358.4200134277344 L 669.2036743164062 347.82000732421875 C 669.2036743164062 347.6600036621094 669.2570190429688 347.5233459472656 669.3636474609375 347.4100036621094 C 669.4769897460938 347.2966613769531 669.6170043945312 347.239990234375 669.78369140625 347.239990234375 C 669.9569702148438 347.239990234375 670.0969848632812 347.2966613769531 670.2036743164062 347.4100036621094 C 670.3170166015625 347.5233459472656 670.3736572265625 347.6600036621094 670.3736572265625 347.82000732421875 L 670.3736572265625 358.4200134277344 C 670.3736572265625 358.5799865722656 670.3136596679688 358.7166748046875 670.1936645507812 358.8299865722656 C 670.0736694335938 358.9433288574219 669.9336547851562 359 669.773681640625 359 C 669.6136474609375 359 669.4769897460938 358.9433288574219 669.3636474609375 358.8299865722656 C 669.2570190429688 358.7166748046875 669.2036743164062 358.5799865722656 669.2036743164062 358.4200134277344 M 669.2036743164062 344.5299987792969 L 669.2036743164062 343.9800109863281 C 669.2036743164062 343.82000732421875 669.2570190429688 343.6833190917969 669.3636474609375 343.57000732421875 C 669.4769897460938 343.4566650390625 669.6136474609375 343.3999938964844 669.773681640625 343.3999938964844 C 669.9336547851562 343.3999938964844 670.0736694335938 343.4566650390625 670.1936645507812 343.57000732421875 C 670.3136596679688 343.6833190917969 670.3736572265625 343.82000732421875 670.3736572265625 343.9800109863281 L 670.3736572265625 344.5299987792969 C 670.3736572265625 344.7033386230469 670.3136596679688 344.8500061035156 670.1936645507812 344.9700012207031 C 670.0736694335938 345.0899963378906 669.9336547851562 345.1499938964844 669.773681640625 345.1499938964844 C 669.6136474609375 345.1499938964844 669.4769897460938 345.0899963378906 669.3636474609375 344.9700012207031 C 669.2570190429688 344.8500061035156 669.2036743164062 344.7033386230469 669.2036743164062 344.5299987792969 Z" transform="matrix(12.410757064819336, 0, 0, 12.410757064819336, -7549.02197265625, -4200.755859375)" style="fill: rgb(0, 0, 0); white-space: pre; color: rgb(51, 51, 51); fill-opacity: 1; stroke: rgb(255, 192, 1); paint-order: fill; -webkit-text-stroke: rgb(0, 0, 0); stroke-width: 1;"/></svg>